<?xml version="1.0" encoding="utf-8"?>
<!-- Author: Mikołaj Błażejewski  -->
<svg
  id="Footer"
  height="204"
  width="1440"
  xmlns="http://www.w3.org/2000/svg"
>
  <path
    fill-rule="evenodd"
    fill="#0099FF"
    d="M0 122.663L48 127.668C96 132.048 192 140.807 288 132.048C384 122.663 480 95.7594 576 91.3797C672 87 768 105.144 864 105.144C960 105.144 1056 87 1152 87C1248 87 1344 105.144 1392 113.904L1440 122.663V204H1392C1344 204 1248 204 1152 204C1056 204 960 204 864 204C768 204 672 204 576 204C480 204 384 204 288 204C192 204 96 204 48 204H0V122.663Z"
  />
  <path
    fill-rule="evenodd"
    fill="#0099FF"
    fill-opacity="0.5"
    d="M0 26.2394L60 19.0468C120 11.8541 240 -3.04488 360 0.551438C480 4.14775 600 26.2394 720 56.0374C840 85.8354 960 122.826 1080 122.826C1200 122.826 1320 85.8354 1380 67.3401L1440 48.8448V204H1380C1320 204 1200 204 1080 204C960 204 840 204 720 204C600 204 480 204 360 204C240 204 120 204 60 204H0V26.2394Z"
  />
  <path
    fill-rule="evenodd"
    fill="#0099FF"
    fill-opacity="0.2"
    d="M0 76.6474L60 93.7457C120 110.844 240 144.451 360 140.324C480 136.197 600 93.7457 720 59.5491C840 25.9422 960 0 1080 0C1200 0 1320 25.9422 1380 38.3237L1440 51.2948V204H1380C1320 204 1200 204 1080 204C960 204 840 204 720 204C600 204 480 204 360 204C240 204 120 204 60 204H0V76.6474Z"
  />
</svg>
